<mxfile host="app.diagrams.net" modified="2021-07-23T05:57:20.494Z" agent="5.0 (Macintosh; Intel Mac OS X 10_15_7) AppleWebKit/537.36 (KHTML, like Gecko) Chrome/91.0.4472.164 Safari/537.36" etag="R-vxrodhqrf-8yolRGLP" version="14.9.2" type="github">
  <diagram id="OJPvsWOSNtd5hfVKmp69" name="Page-1">
    <mxGraphModel dx="1426" dy="794" grid="1" gridSize="10" guides="1" tooltips="1" connect="1" arrows="1" fold="1" page="1" pageScale="1" pageWidth="827" pageHeight="1169" math="0" shadow="0">
      <root>
        <mxCell id="0" />
        <mxCell id="1" parent="0" />
        <mxCell id="GgKX9jksrGjFBrsgbLyw-6" value="" style="shape=cylinder3;whiteSpace=wrap;html=1;boundedLbl=1;backgroundOutline=1;size=15;" vertex="1" parent="1">
          <mxGeometry x="200" y="240" width="60" height="80" as="geometry" />
        </mxCell>
        <mxCell id="GgKX9jksrGjFBrsgbLyw-7" value="Vertical Container" style="swimlane;" vertex="1" parent="1">
          <mxGeometry x="420" y="180" width="200" height="200" as="geometry" />
        </mxCell>
      </root>
    </mxGraphModel>
  </diagram>
</mxfile>
